<svg width="83" height="25" viewBox="0 0 83 25" fill="none" xmlns="http://www.w3.org/2000/svg">
<rect y="2.38095" width="20.2381" height="20.2381" rx="5.95238" fill="#0ACF83"/>
<mask id="mask0_848:1068" style="mask-type:alpha" maskUnits="userSpaceOnUse" x="0" y="2" width="21" height="21">
<rect y="2.38098" width="20.2381" height="20.2381" rx="5.95238" fill="#0ACF83"/>
</mask>
<g mask="url(#mask0_848:1068)">
<path d="M13.0689 12.0182C13.4641 13.4929 12.5873 15.0092 11.1105 15.4049C9.63368 15.8006 8.11618 14.9259 7.72103 13.4511C7.32588 11.9764 8.20272 10.4601 9.6795 10.0644C11.1563 9.66873 12.6738 10.5435 13.0689 12.0182Z" fill="white"/>
<path fill-rule="evenodd" clip-rule="evenodd" d="M-0.230604 3.89791C-0.605726 4.27258 -0.605938 4.87983 -0.231077 5.25424L4.47558 9.9552C3.83921 11.3039 3.65884 12.8758 4.0748 14.4282C5.0088 17.9139 8.59562 19.9814 12.0862 19.0461C15.5768 18.1108 17.6493 14.5269 16.7153 11.0412C15.7813 7.55546 12.1945 5.48794 8.70391 6.42324C8.17838 6.56406 7.68499 6.76491 7.22916 7.01643L2.61688 2.40972C2.24202 2.03532 1.63403 2.03553 1.25891 2.4102L-0.230604 3.89791ZM11.3707 16.3759C13.3845 15.8363 14.5802 13.7687 14.0414 11.7577C13.5025 9.74672 11.4332 8.55392 9.41941 9.09352C7.40561 9.63311 6.20993 11.7008 6.74877 13.7118C7.28761 15.7227 9.35693 16.9155 11.3707 16.3759Z" fill="white"/>
</g>
<path d="M28.6049 18V5.4H30.9089V16.2H36.4889V18H28.6049ZM39.9451 7.686C39.5251 7.686 39.1771 7.56 38.9011 7.308C38.6371 7.056 38.5051 6.738 38.5051 6.354C38.5051 5.97 38.6371 5.658 38.9011 5.418C39.1771 5.166 39.5251 5.04 39.9451 5.04C40.3651 5.04 40.7071 5.166 40.9711 5.418C41.2471 5.658 41.3851 5.97 41.3851 6.354C41.3851 6.738 41.2471 7.056 40.9711 7.308C40.7071 7.56 40.3651 7.686 39.9451 7.686ZM38.7931 18V9.072H41.0971V18H38.7931ZM43.74 18V9.072H45.774L45.954 10.584C46.23 10.056 46.626 9.636 47.142 9.324C47.67 9.012 48.288 8.856 48.996 8.856C50.1 8.856 50.958 9.204 51.57 9.9C52.182 10.596 52.488 11.616 52.488 12.96V18H50.184V13.176C50.184 12.408 50.028 11.82 49.716 11.412C49.404 11.004 48.918 10.8 48.258 10.8C47.61 10.8 47.076 11.028 46.656 11.484C46.248 11.94 46.044 12.576 46.044 13.392V18H43.74ZM54.9293 18V5.04H57.2333V12.69L60.4013 9.072H63.1373L59.4833 13.14L63.7313 18H60.8513L57.2333 13.518V18H54.9293ZM68.9976 18.216C68.0976 18.216 67.2996 18.024 66.6036 17.64C65.9076 17.256 65.3616 16.716 64.9656 16.02C64.5696 15.324 64.3716 14.52 64.3716 13.608C64.3716 12.684 64.5636 11.862 64.9476 11.142C65.3436 10.422 65.8836 9.864 66.5676 9.468C67.2636 9.06 68.0796 8.856 69.0156 8.856C69.8916 8.856 70.6656 9.048 71.3376 9.432C72.0096 9.816 72.5316 10.344 72.9036 11.016C73.2876 11.676 73.4796 12.414 73.4796 13.23C73.4796 13.362 73.4736 13.5 73.4616 13.644C73.4616 13.788 73.4556 13.938 73.4436 14.094H66.6576C66.7056 14.79 66.9456 15.336 67.3776 15.732C67.8216 16.128 68.3556 16.326 68.9796 16.326C69.4476 16.326 69.8376 16.224 70.1496 16.02C70.4736 15.804 70.7136 15.528 70.8696 15.192H73.2096C73.0416 15.756 72.7596 16.272 72.3636 16.74C71.9796 17.196 71.4996 17.556 70.9236 17.82C70.3596 18.084 69.7176 18.216 68.9976 18.216ZM69.0156 10.728C68.4516 10.728 67.9536 10.89 67.5216 11.214C67.0896 11.526 66.8136 12.006 66.6936 12.654H71.1396C71.1036 12.066 70.8876 11.598 70.4916 11.25C70.0956 10.902 69.6036 10.728 69.0156 10.728ZM75.6555 18V9.072H77.7075L77.9235 10.746C78.2475 10.17 78.6855 9.714 79.2375 9.378C79.8015 9.03 80.4615 8.856 81.2175 8.856V11.286H80.5695C80.0655 11.286 79.6155 11.364 79.2195 11.52C78.8235 11.676 78.5115 11.946 78.2835 12.33C78.0675 12.714 77.9595 13.248 77.9595 13.932V18H75.6555Z" fill="black"/>
</svg>
